%
M48
M72
T01C0.0276
T02C0.0320
T03C0.0400
T04C0.0433
T05C0.1102
T06C0.1300
%
T01
X15180Y21351
X15180Y22351
X15180Y23351
X15180Y24351
X15180Y20351
X15180Y19351
X15180Y18351
X15180Y25351
X15180Y17351
X17180Y21351
X17180Y22351
X17180Y23351
X17180Y24351
X17180Y20351
X17180Y19351
X17180Y18351
X17180Y25351
X17180Y17351
X18680Y21351
X18680Y22351
X18680Y23351
X18680Y24351
X18680Y20351
X18680Y19351
X18680Y18351
X18680Y25351
X18680Y17351
X20680Y31851
X20680Y32851
X20680Y33851
X20680Y34851
X20680Y30851
X20680Y29851
X20680Y28851
X20680Y35851
X20680Y27851
X20680Y21351
X20680Y22351
X20680Y23351
X20680Y24351
X20680Y20351
X20680Y19351
X20680Y18351
X20680Y25351
X20680Y17351
X10180Y31851
X10180Y32851
X10180Y33851
X10180Y34851
X10180Y30851
X10180Y29851
X10180Y28851
X10180Y35851
X10180Y27851
X13680Y31851
X13680Y32851
X13680Y33851
X13680Y34851
X13680Y30851
X13680Y29851
X13680Y28851
X13680Y35851
X13680Y27851
X11680Y31851
X11680Y32851
X11680Y33851
X11680Y34851
X11680Y30851
X11680Y29851
X11680Y28851
X11680Y35851
X11680Y27851
X22180Y10851
X22180Y11851
X22180Y12851
X22180Y13851
X22180Y9851
X22180Y8851
X22180Y7851
X22180Y14851
X22180Y6851
X18680Y10851
X18680Y11851
X18680Y12851
X18680Y13851
X18680Y9851
X18680Y8851
X18680Y7851
X18680Y14851
X18680Y6851
X10180Y21351
X10180Y22351
X10180Y23351
X10180Y24351
X10180Y20351
X10180Y19351
X10180Y18351
X10180Y25351
X10180Y17351
X11680Y10851
X11680Y11851
X11680Y12851
X11680Y13851
X11680Y9851
X11680Y8851
X11680Y7851
X11680Y14851
X11680Y6851
X13680Y10851
X13680Y11851
X13680Y12851
X13680Y13851
X13680Y9851
X13680Y8851
X13680Y7851
X13680Y14851
X13680Y6851
X15180Y10851
X15180Y11851
X15180Y12851
X15180Y13851
X15180Y9851
X15180Y8851
X15180Y7851
X15180Y14851
X15180Y6851
X17180Y31851
X17180Y32851
X17180Y33851
X17180Y34851
X17180Y30851
X17180Y29851
X17180Y28851
X17180Y35851
X17180Y27851
X15180Y31851
X15180Y32851
X15180Y33851
X15180Y34851
X15180Y30851
X15180Y29851
X15180Y28851
X15180Y35851
X15180Y27851
X20680Y10851
X20680Y11851
X20680Y12851
X20680Y13851
X20680Y9851
X20680Y8851
X20680Y7851
X20680Y14851
X20680Y6851
X10180Y10851
X10180Y11851
X10180Y12851
X10180Y13851
X10180Y9851
X10180Y8851
X10180Y7851
X10180Y14851
X10180Y6851
X13680Y21351
X13680Y22351
X13680Y23351
X13680Y24351
X13680Y20351
X13680Y19351
X13680Y18351
X13680Y25351
X13680Y17351
X17180Y10851
X17180Y11851
X17180Y12851
X17180Y13851
X17180Y9851
X17180Y8851
X17180Y7851
X17180Y14851
X17180Y6851
X18680Y31851
X18680Y32851
X18680Y33851
X18680Y34851
X18680Y30851
X18680Y29851
X18680Y28851
X18680Y35851
X18680Y27851
X11680Y21351
X11680Y22351
X11680Y23351
X11680Y24351
X11680Y20351
X11680Y19351
X11680Y18351
X11680Y25351
X11680Y17351
X22180Y21351
X22180Y22351
X22180Y23351
X22180Y24351
X22180Y20351
X22180Y19351
X22180Y18351
X22180Y25351
X22180Y17351
X22180Y31851
X22180Y32851
X22180Y33851
X22180Y34851
X22180Y30851
X22180Y29851
X22180Y28851
X22180Y35851
X22180Y27851
X37180Y21351
X37180Y22351
X37180Y23351
X37180Y24351
X37180Y20351
X37180Y19351
X37180Y18351
X37180Y25351
X37180Y17351
X35180Y21351
X35180Y22351
X35180Y23351
X35180Y24351
X35180Y20351
X35180Y19351
X35180Y18351
X35180Y25351
X35180Y17351
X33680Y21351
X33680Y22351
X33680Y23351
X33680Y24351
X33680Y20351
X33680Y19351
X33680Y18351
X33680Y25351
X33680Y17351
X31680Y31851
X31680Y32851
X31680Y33851
X31680Y34851
X31680Y30851
X31680Y29851
X31680Y28851
X31680Y35851
X31680Y27851
X31680Y21351
X31680Y22351
X31680Y23351
X31680Y24351
X31680Y20351
X31680Y19351
X31680Y18351
X31680Y25351
X31680Y17351
X42180Y31851
X42180Y32851
X42180Y33851
X42180Y34851
X42180Y30851
X42180Y29851
X42180Y28851
X42180Y35851
X42180Y27851
X38680Y31851
X38680Y32851
X38680Y33851
X38680Y34851
X38680Y30851
X38680Y29851
X38680Y28851
X38680Y35851
X38680Y27851
X40680Y31851
X40680Y32851
X40680Y33851
X40680Y34851
X40680Y30851
X40680Y29851
X40680Y28851
X40680Y35851
X40680Y27851
X30180Y10851
X30180Y11851
X30180Y12851
X30180Y13851
X30180Y9851
X30180Y8851
X30180Y7851
X30180Y14851
X30180Y6851
X33680Y10851
X33680Y11851
X33680Y12851
X33680Y13851
X33680Y9851
X33680Y8851
X33680Y7851
X33680Y14851
X33680Y6851
X42180Y21351
X42180Y22351
X42180Y23351
X42180Y24351
X42180Y20351
X42180Y19351
X42180Y18351
X42180Y25351
X42180Y17351
X40680Y10851
X40680Y11851
X40680Y12851
X40680Y13851
X40680Y9851
X40680Y8851
X40680Y7851
X40680Y14851
X40680Y6851
X38680Y10851
X38680Y11851
X38680Y12851
X38680Y13851
X38680Y9851
X38680Y8851
X38680Y7851
X38680Y14851
X38680Y6851
X37180Y10851
X37180Y11851
X37180Y12851
X37180Y13851
X37180Y9851
X37180Y8851
X37180Y7851
X37180Y14851
X37180Y6851
X35180Y31851
X35180Y32851
X35180Y33851
X35180Y34851
X35180Y30851
X35180Y29851
X35180Y28851
X35180Y35851
X35180Y27851
X37180Y31851
X37180Y32851
X37180Y33851
X37180Y34851
X37180Y30851
X37180Y29851
X37180Y28851
X37180Y35851
X37180Y27851
X31680Y10851
X31680Y11851
X31680Y12851
X31680Y13851
X31680Y9851
X31680Y8851
X31680Y7851
X31680Y14851
X31680Y6851
X42180Y10851
X42180Y11851
X42180Y12851
X42180Y13851
X42180Y9851
X42180Y8851
X42180Y7851
X42180Y14851
X42180Y6851
X38680Y21351
X38680Y22351
X38680Y23351
X38680Y24351
X38680Y20351
X38680Y19351
X38680Y18351
X38680Y25351
X38680Y17351
X35180Y10851
X35180Y11851
X35180Y12851
X35180Y13851
X35180Y9851
X35180Y8851
X35180Y7851
X35180Y14851
X35180Y6851
X33680Y31851
X33680Y32851
X33680Y33851
X33680Y34851
X33680Y30851
X33680Y29851
X33680Y28851
X33680Y35851
X33680Y27851
X40680Y21351
X40680Y22351
X40680Y23351
X40680Y24351
X40680Y20351
X40680Y19351
X40680Y18351
X40680Y25351
X40680Y17351
X30180Y21351
X30180Y22351
X30180Y23351
X30180Y24351
X30180Y20351
X30180Y19351
X30180Y18351
X30180Y25351
X30180Y17351
X30180Y31851
X30180Y32851
X30180Y33851
X30180Y34851
X30180Y30851
X30180Y29851
X30180Y28851
X30180Y35851
X30180Y27851
T02
X24180Y14851
X26180Y14851
X24180Y12351
X26180Y12351
X24180Y9851
X26180Y9851
X24180Y17351
X26180Y17351
X24180Y19851
X26180Y19851
X24180Y22351
X26180Y22351
T03
X18030Y40851
X19110Y40851
X20200Y40851
X21290Y40851
X22370Y40851
X23460Y40851
X24550Y40851
X25630Y40851
X26720Y40851
X27810Y40851
X28890Y40851
X29980Y40851
X17490Y41851
X18570Y41851
X19660Y41851
X20750Y41851
X21830Y41851
X22920Y41851
X24010Y41851
X25090Y41851
X26180Y41851
X27270Y41851
X28350Y41851
X29440Y41851
X31070Y40851
X32160Y40851
X33240Y40851
X34330Y40851
X30530Y41851
X31610Y41851
X32700Y41851
X33790Y41851
X34870Y41851
X17490Y39851
X18570Y39851
X19660Y39851
X20750Y39851
X21830Y39851
X22920Y39851
X24010Y39851
X25090Y39851
X26180Y39851
X27270Y39851
X28350Y39851
X29440Y39851
X30530Y39851
X31610Y39851
X32700Y39851
X33790Y39851
X34870Y39851
X7680Y13201
X7680Y14281
X7680Y15371
X7680Y16461
X7680Y17541
X7680Y18631
X7680Y19721
X7680Y20801
X7680Y21891
X7680Y22981
X7680Y24061
X7680Y25151
X6680Y12661
X6680Y13741
X6680Y14831
X6680Y15921
X6680Y17001
X6680Y18091
X6680Y19181
X6680Y20261
X6680Y21351
X6680Y22441
X6680Y23521
X6680Y24611
X7680Y26241
X7680Y27331
X7680Y28411
X7680Y29501
X6680Y25701
X6680Y26781
X6680Y27871
X6680Y28961
X6680Y30041
X8680Y12661
X8680Y13741
X8680Y14831
X8680Y15921
X8680Y17001
X8680Y18091
X8680Y19181
X8680Y20261
X8680Y21351
X8680Y22441
X8680Y23521
X8680Y24611
X8680Y25701
X8680Y26781
X8680Y27871
X8680Y28961
X8680Y30041
X44680Y13201
X44680Y14281
X44680Y15371
X44680Y16461
X44680Y17541
X44680Y18631
X44680Y19721
X44680Y20801
X44680Y21891
X44680Y22981
X44680Y24061
X44680Y25151
X45680Y12661
X45680Y13741
X45680Y14831
X45680Y15921
X45680Y17001
X45680Y18091
X45680Y19181
X45680Y20261
X45680Y21351
X45680Y22441
X45680Y23521
X45680Y24611
X44680Y26241
X44680Y27331
X44680Y28411
X44680Y29501
X45680Y25701
X45680Y26781
X45680Y27871
X45680Y28961
X45680Y30041
X43680Y12661
X43680Y13741
X43680Y14831
X43680Y15921
X43680Y17001
X43680Y18091
X43680Y19181
X43680Y20261
X43680Y21351
X43680Y22441
X43680Y23521
X43680Y24611
X43680Y25701
X43680Y26781
X43680Y27871
X43680Y28961
X43680Y30041
T04
X26180Y26351
X26180Y28351
X26180Y30851
X26180Y33351
X26180Y35351
T05
X6180Y36851
X46180Y36851
X46180Y6351
X6180Y6351
T06
X14150Y40851
X38210Y40851
X7680Y9321
X7680Y33381
X44680Y9321
X44680Y33381
M30
