G75*
%MOIN*%
%OFA0B0*%
%FSLAX24Y24*%
%IPPOS*%
%LPD*%
%AMOC8*
5,1,8,0,0,1.08239X$1,22.5*
%
%ADD10C,0.0000*%
%ADD11C,0.0476*%
%ADD12C,0.0050*%
%ADD13OC8,0.0600*%
%ADD14C,0.2000*%
%ADD15R,0.1050X0.1650*%
%ADD16OC8,0.0650*%
%ADD17OC8,0.0630*%
%ADD18OC8,0.1502*%
%ADD19C,0.0160*%
D10*
X004180Y003851D02*
X004180Y038101D01*
X009105Y038101D01*
X011655Y040651D01*
X011655Y044351D01*
X040705Y044351D01*
X040705Y040626D01*
X043255Y038076D01*
X048180Y038076D01*
X048180Y003851D01*
X004180Y003851D01*
X020980Y003851D02*
X025380Y003851D01*
X026480Y003851D02*
X030880Y003851D01*
D11*
X030180Y006851D03*
X030180Y007851D03*
X030180Y008851D03*
X030180Y009851D03*
X030180Y010851D03*
X030180Y011851D03*
X030180Y012851D03*
X030180Y013851D03*
X030180Y014851D03*
X031680Y014851D03*
X031680Y013851D03*
X031680Y012851D03*
X031680Y011851D03*
X031680Y010851D03*
X031680Y009851D03*
X031680Y008851D03*
X031680Y007851D03*
X031680Y006851D03*
X033680Y006851D03*
X033680Y007851D03*
X033680Y008851D03*
X033680Y009851D03*
X033680Y010851D03*
X033680Y011851D03*
X033680Y012851D03*
X033680Y013851D03*
X033680Y014851D03*
X035180Y014851D03*
X035180Y013851D03*
X035180Y012851D03*
X035180Y011851D03*
X035180Y010851D03*
X035180Y009851D03*
X035180Y008851D03*
X035180Y007851D03*
X035180Y006851D03*
X037180Y006851D03*
X037180Y007851D03*
X037180Y008851D03*
X037180Y009851D03*
X037180Y010851D03*
X037180Y011851D03*
X037180Y012851D03*
X037180Y013851D03*
X037180Y014851D03*
X038680Y014851D03*
X038680Y013851D03*
X038680Y012851D03*
X038680Y011851D03*
X038680Y010851D03*
X038680Y009851D03*
X038680Y008851D03*
X038680Y007851D03*
X038680Y006851D03*
X040680Y006851D03*
X040680Y007851D03*
X040680Y008851D03*
X040680Y009851D03*
X040680Y010851D03*
X040680Y011851D03*
X040680Y012851D03*
X040680Y013851D03*
X040680Y014851D03*
X042180Y014851D03*
X042180Y013851D03*
X042180Y012851D03*
X042180Y011851D03*
X042180Y010851D03*
X042180Y009851D03*
X042180Y008851D03*
X042180Y007851D03*
X042180Y006851D03*
X042180Y017351D03*
X042180Y018351D03*
X042180Y019351D03*
X042180Y020351D03*
X042180Y021351D03*
X042180Y022351D03*
X042180Y023351D03*
X042180Y024351D03*
X042180Y025351D03*
X040680Y025351D03*
X040680Y024351D03*
X040680Y023351D03*
X040680Y022351D03*
X040680Y021351D03*
X040680Y020351D03*
X040680Y019351D03*
X040680Y018351D03*
X040680Y017351D03*
X038680Y017351D03*
X038680Y018351D03*
X038680Y019351D03*
X038680Y020351D03*
X038680Y021351D03*
X037180Y021351D03*
X037180Y020351D03*
X037180Y019351D03*
X037180Y018351D03*
X037180Y017351D03*
X035180Y017351D03*
X035180Y018351D03*
X035180Y019351D03*
X035180Y020351D03*
X035180Y021351D03*
X035180Y022351D03*
X035180Y023351D03*
X035180Y024351D03*
X035180Y025351D03*
X033680Y025351D03*
X033680Y024351D03*
X033680Y023351D03*
X033680Y022351D03*
X033680Y021351D03*
X033680Y020351D03*
X033680Y019351D03*
X033680Y018351D03*
X033680Y017351D03*
X031680Y017351D03*
X031680Y018351D03*
X031680Y019351D03*
X031680Y020351D03*
X031680Y021351D03*
X031680Y022351D03*
X031680Y023351D03*
X031680Y024351D03*
X031680Y025351D03*
X030180Y025351D03*
X030180Y024351D03*
X030180Y023351D03*
X030180Y022351D03*
X030180Y021351D03*
X030180Y020351D03*
X030180Y019351D03*
X030180Y018351D03*
X030180Y017351D03*
X037180Y022351D03*
X037180Y023351D03*
X037180Y024351D03*
X037180Y025351D03*
X038680Y025351D03*
X038680Y024351D03*
X038680Y023351D03*
X038680Y022351D03*
X038680Y027851D03*
X038680Y028851D03*
X038680Y029851D03*
X038680Y030851D03*
X038680Y031851D03*
X038680Y032851D03*
X038680Y033851D03*
X038680Y034851D03*
X038680Y035851D03*
X037180Y035851D03*
X037180Y034851D03*
X037180Y033851D03*
X037180Y032851D03*
X037180Y031851D03*
X037180Y030851D03*
X037180Y029851D03*
X037180Y028851D03*
X037180Y027851D03*
X035180Y027851D03*
X035180Y028851D03*
X035180Y029851D03*
X035180Y030851D03*
X035180Y031851D03*
X035180Y032851D03*
X035180Y033851D03*
X035180Y034851D03*
X035180Y035851D03*
X033680Y035851D03*
X033680Y034851D03*
X033680Y033851D03*
X033680Y032851D03*
X033680Y031851D03*
X033680Y030851D03*
X033680Y029851D03*
X033680Y028851D03*
X033680Y027851D03*
X031680Y027851D03*
X031680Y028851D03*
X031680Y029851D03*
X031680Y030851D03*
X031680Y031851D03*
X031680Y032851D03*
X031680Y033851D03*
X031680Y034851D03*
X031680Y035851D03*
X030180Y035851D03*
X030180Y034851D03*
X030180Y033851D03*
X030180Y032851D03*
X030180Y031851D03*
X030180Y030851D03*
X030180Y029851D03*
X030180Y028851D03*
X030180Y027851D03*
X022180Y027851D03*
X022180Y028851D03*
X022180Y029851D03*
X022180Y030851D03*
X022180Y031851D03*
X022180Y032851D03*
X022180Y033851D03*
X022180Y034851D03*
X022180Y035851D03*
X020680Y035851D03*
X020680Y034851D03*
X020680Y033851D03*
X020680Y032851D03*
X020680Y031851D03*
X020680Y030851D03*
X020680Y029851D03*
X020680Y028851D03*
X020680Y027851D03*
X018680Y027851D03*
X018680Y028851D03*
X018680Y029851D03*
X018680Y030851D03*
X018680Y031851D03*
X018680Y032851D03*
X018680Y033851D03*
X018680Y034851D03*
X018680Y035851D03*
X017180Y035851D03*
X017180Y034851D03*
X017180Y033851D03*
X017180Y032851D03*
X017180Y031851D03*
X017180Y030851D03*
X017180Y029851D03*
X017180Y028851D03*
X017180Y027851D03*
X015180Y027851D03*
X015180Y028851D03*
X015180Y029851D03*
X015180Y030851D03*
X015180Y031851D03*
X015180Y032851D03*
X015180Y033851D03*
X015180Y034851D03*
X015180Y035851D03*
X013680Y035851D03*
X013680Y034851D03*
X013680Y033851D03*
X013680Y032851D03*
X013680Y031851D03*
X013680Y030851D03*
X013680Y029851D03*
X013680Y028851D03*
X013680Y027851D03*
X011680Y027851D03*
X011680Y028851D03*
X011680Y029851D03*
X011680Y030851D03*
X011680Y031851D03*
X011680Y032851D03*
X011680Y033851D03*
X011680Y034851D03*
X011680Y035851D03*
X010180Y035851D03*
X010180Y034851D03*
X010180Y033851D03*
X010180Y032851D03*
X010180Y031851D03*
X010180Y030851D03*
X010180Y029851D03*
X010180Y028851D03*
X010180Y027851D03*
X010180Y025351D03*
X010180Y024351D03*
X010180Y023351D03*
X010180Y022351D03*
X010180Y021351D03*
X010180Y020351D03*
X010180Y019351D03*
X010180Y018351D03*
X010180Y017351D03*
X011680Y017351D03*
X011680Y018351D03*
X011680Y019351D03*
X011680Y020351D03*
X011680Y021351D03*
X011680Y022351D03*
X011680Y023351D03*
X011680Y024351D03*
X011680Y025351D03*
X013680Y025351D03*
X013680Y024351D03*
X013680Y023351D03*
X013680Y022351D03*
X015180Y022351D03*
X015180Y023351D03*
X015180Y024351D03*
X015180Y025351D03*
X017180Y025351D03*
X017180Y024351D03*
X017180Y023351D03*
X017180Y022351D03*
X017180Y021351D03*
X017180Y020351D03*
X017180Y019351D03*
X017180Y018351D03*
X017180Y017351D03*
X018680Y017351D03*
X018680Y018351D03*
X018680Y019351D03*
X018680Y020351D03*
X018680Y021351D03*
X018680Y022351D03*
X018680Y023351D03*
X018680Y024351D03*
X018680Y025351D03*
X020680Y025351D03*
X020680Y024351D03*
X020680Y023351D03*
X020680Y022351D03*
X020680Y021351D03*
X020680Y020351D03*
X020680Y019351D03*
X020680Y018351D03*
X020680Y017351D03*
X022180Y017351D03*
X022180Y018351D03*
X022180Y019351D03*
X022180Y020351D03*
X022180Y021351D03*
X022180Y022351D03*
X022180Y023351D03*
X022180Y024351D03*
X022180Y025351D03*
X015180Y021351D03*
X015180Y020351D03*
X015180Y019351D03*
X015180Y018351D03*
X015180Y017351D03*
X013680Y017351D03*
X013680Y018351D03*
X013680Y019351D03*
X013680Y020351D03*
X013680Y021351D03*
X013680Y014851D03*
X013680Y013851D03*
X013680Y012851D03*
X013680Y011851D03*
X013680Y010851D03*
X013680Y009851D03*
X013680Y008851D03*
X013680Y007851D03*
X013680Y006851D03*
X015180Y006851D03*
X015180Y007851D03*
X015180Y008851D03*
X015180Y009851D03*
X015180Y010851D03*
X015180Y011851D03*
X015180Y012851D03*
X015180Y013851D03*
X015180Y014851D03*
X017180Y014851D03*
X017180Y013851D03*
X017180Y012851D03*
X017180Y011851D03*
X017180Y010851D03*
X017180Y009851D03*
X017180Y008851D03*
X017180Y007851D03*
X017180Y006851D03*
X018680Y006851D03*
X018680Y007851D03*
X018680Y008851D03*
X018680Y009851D03*
X018680Y010851D03*
X018680Y011851D03*
X018680Y012851D03*
X018680Y013851D03*
X018680Y014851D03*
X020680Y014851D03*
X020680Y013851D03*
X020680Y012851D03*
X020680Y011851D03*
X020680Y010851D03*
X020680Y009851D03*
X020680Y008851D03*
X020680Y007851D03*
X020680Y006851D03*
X022180Y006851D03*
X022180Y007851D03*
X022180Y008851D03*
X022180Y009851D03*
X022180Y010851D03*
X022180Y011851D03*
X022180Y012851D03*
X022180Y013851D03*
X022180Y014851D03*
X011680Y014851D03*
X011680Y013851D03*
X011680Y012851D03*
X011680Y011851D03*
X011680Y010851D03*
X011680Y009851D03*
X011680Y008851D03*
X011680Y007851D03*
X011680Y006851D03*
X010180Y006851D03*
X010180Y007851D03*
X010180Y008851D03*
X010180Y009851D03*
X010180Y010851D03*
X010180Y011851D03*
X010180Y012851D03*
X010180Y013851D03*
X010180Y014851D03*
X040680Y027851D03*
X040680Y028851D03*
X040680Y029851D03*
X040680Y030851D03*
X040680Y031851D03*
X040680Y032851D03*
X040680Y033851D03*
X040680Y034851D03*
X040680Y035851D03*
X042180Y035851D03*
X042180Y034851D03*
X042180Y033851D03*
X042180Y032851D03*
X042180Y031851D03*
X042180Y030851D03*
X042180Y029851D03*
X042180Y028851D03*
X042180Y027851D03*
D12*
X040456Y027851D02*
X040458Y027880D01*
X040464Y027909D01*
X040473Y027937D01*
X040486Y027963D01*
X040502Y027987D01*
X040522Y028009D01*
X040544Y028029D01*
X040568Y028045D01*
X040594Y028058D01*
X040622Y028067D01*
X040651Y028073D01*
X040680Y028075D01*
X040709Y028073D01*
X040738Y028067D01*
X040766Y028058D01*
X040792Y028045D01*
X040816Y028029D01*
X040838Y028009D01*
X040858Y027987D01*
X040874Y027963D01*
X040887Y027937D01*
X040896Y027909D01*
X040902Y027880D01*
X040904Y027851D01*
X040902Y027822D01*
X040896Y027793D01*
X040887Y027765D01*
X040874Y027739D01*
X040858Y027715D01*
X040838Y027693D01*
X040816Y027673D01*
X040792Y027657D01*
X040766Y027644D01*
X040738Y027635D01*
X040709Y027629D01*
X040680Y027627D01*
X040651Y027629D01*
X040622Y027635D01*
X040594Y027644D01*
X040568Y027657D01*
X040544Y027673D01*
X040522Y027693D01*
X040502Y027715D01*
X040486Y027739D01*
X040473Y027765D01*
X040464Y027793D01*
X040458Y027822D01*
X040456Y027851D01*
X036956Y027851D02*
X036958Y027880D01*
X036964Y027909D01*
X036973Y027937D01*
X036986Y027963D01*
X037002Y027987D01*
X037022Y028009D01*
X037044Y028029D01*
X037068Y028045D01*
X037094Y028058D01*
X037122Y028067D01*
X037151Y028073D01*
X037180Y028075D01*
X037209Y028073D01*
X037238Y028067D01*
X037266Y028058D01*
X037292Y028045D01*
X037316Y028029D01*
X037338Y028009D01*
X037358Y027987D01*
X037374Y027963D01*
X037387Y027937D01*
X037396Y027909D01*
X037402Y027880D01*
X037404Y027851D01*
X037402Y027822D01*
X037396Y027793D01*
X037387Y027765D01*
X037374Y027739D01*
X037358Y027715D01*
X037338Y027693D01*
X037316Y027673D01*
X037292Y027657D01*
X037266Y027644D01*
X037238Y027635D01*
X037209Y027629D01*
X037180Y027627D01*
X037151Y027629D01*
X037122Y027635D01*
X037094Y027644D01*
X037068Y027657D01*
X037044Y027673D01*
X037022Y027693D01*
X037002Y027715D01*
X036986Y027739D01*
X036973Y027765D01*
X036964Y027793D01*
X036958Y027822D01*
X036956Y027851D01*
X033456Y027851D02*
X033458Y027880D01*
X033464Y027909D01*
X033473Y027937D01*
X033486Y027963D01*
X033502Y027987D01*
X033522Y028009D01*
X033544Y028029D01*
X033568Y028045D01*
X033594Y028058D01*
X033622Y028067D01*
X033651Y028073D01*
X033680Y028075D01*
X033709Y028073D01*
X033738Y028067D01*
X033766Y028058D01*
X033792Y028045D01*
X033816Y028029D01*
X033838Y028009D01*
X033858Y027987D01*
X033874Y027963D01*
X033887Y027937D01*
X033896Y027909D01*
X033902Y027880D01*
X033904Y027851D01*
X033902Y027822D01*
X033896Y027793D01*
X033887Y027765D01*
X033874Y027739D01*
X033858Y027715D01*
X033838Y027693D01*
X033816Y027673D01*
X033792Y027657D01*
X033766Y027644D01*
X033738Y027635D01*
X033709Y027629D01*
X033680Y027627D01*
X033651Y027629D01*
X033622Y027635D01*
X033594Y027644D01*
X033568Y027657D01*
X033544Y027673D01*
X033522Y027693D01*
X033502Y027715D01*
X033486Y027739D01*
X033473Y027765D01*
X033464Y027793D01*
X033458Y027822D01*
X033456Y027851D01*
X029956Y027851D02*
X029958Y027880D01*
X029964Y027909D01*
X029973Y027937D01*
X029986Y027963D01*
X030002Y027987D01*
X030022Y028009D01*
X030044Y028029D01*
X030068Y028045D01*
X030094Y028058D01*
X030122Y028067D01*
X030151Y028073D01*
X030180Y028075D01*
X030209Y028073D01*
X030238Y028067D01*
X030266Y028058D01*
X030292Y028045D01*
X030316Y028029D01*
X030338Y028009D01*
X030358Y027987D01*
X030374Y027963D01*
X030387Y027937D01*
X030396Y027909D01*
X030402Y027880D01*
X030404Y027851D01*
X030402Y027822D01*
X030396Y027793D01*
X030387Y027765D01*
X030374Y027739D01*
X030358Y027715D01*
X030338Y027693D01*
X030316Y027673D01*
X030292Y027657D01*
X030266Y027644D01*
X030238Y027635D01*
X030209Y027629D01*
X030180Y027627D01*
X030151Y027629D01*
X030122Y027635D01*
X030094Y027644D01*
X030068Y027657D01*
X030044Y027673D01*
X030022Y027693D01*
X030002Y027715D01*
X029986Y027739D01*
X029973Y027765D01*
X029964Y027793D01*
X029958Y027822D01*
X029956Y027851D01*
X020456Y027851D02*
X020458Y027880D01*
X020464Y027909D01*
X020473Y027937D01*
X020486Y027963D01*
X020502Y027987D01*
X020522Y028009D01*
X020544Y028029D01*
X020568Y028045D01*
X020594Y028058D01*
X020622Y028067D01*
X020651Y028073D01*
X020680Y028075D01*
X020709Y028073D01*
X020738Y028067D01*
X020766Y028058D01*
X020792Y028045D01*
X020816Y028029D01*
X020838Y028009D01*
X020858Y027987D01*
X020874Y027963D01*
X020887Y027937D01*
X020896Y027909D01*
X020902Y027880D01*
X020904Y027851D01*
X020902Y027822D01*
X020896Y027793D01*
X020887Y027765D01*
X020874Y027739D01*
X020858Y027715D01*
X020838Y027693D01*
X020816Y027673D01*
X020792Y027657D01*
X020766Y027644D01*
X020738Y027635D01*
X020709Y027629D01*
X020680Y027627D01*
X020651Y027629D01*
X020622Y027635D01*
X020594Y027644D01*
X020568Y027657D01*
X020544Y027673D01*
X020522Y027693D01*
X020502Y027715D01*
X020486Y027739D01*
X020473Y027765D01*
X020464Y027793D01*
X020458Y027822D01*
X020456Y027851D01*
X016956Y027851D02*
X016958Y027880D01*
X016964Y027909D01*
X016973Y027937D01*
X016986Y027963D01*
X017002Y027987D01*
X017022Y028009D01*
X017044Y028029D01*
X017068Y028045D01*
X017094Y028058D01*
X017122Y028067D01*
X017151Y028073D01*
X017180Y028075D01*
X017209Y028073D01*
X017238Y028067D01*
X017266Y028058D01*
X017292Y028045D01*
X017316Y028029D01*
X017338Y028009D01*
X017358Y027987D01*
X017374Y027963D01*
X017387Y027937D01*
X017396Y027909D01*
X017402Y027880D01*
X017404Y027851D01*
X017402Y027822D01*
X017396Y027793D01*
X017387Y027765D01*
X017374Y027739D01*
X017358Y027715D01*
X017338Y027693D01*
X017316Y027673D01*
X017292Y027657D01*
X017266Y027644D01*
X017238Y027635D01*
X017209Y027629D01*
X017180Y027627D01*
X017151Y027629D01*
X017122Y027635D01*
X017094Y027644D01*
X017068Y027657D01*
X017044Y027673D01*
X017022Y027693D01*
X017002Y027715D01*
X016986Y027739D01*
X016973Y027765D01*
X016964Y027793D01*
X016958Y027822D01*
X016956Y027851D01*
X013456Y027851D02*
X013458Y027880D01*
X013464Y027909D01*
X013473Y027937D01*
X013486Y027963D01*
X013502Y027987D01*
X013522Y028009D01*
X013544Y028029D01*
X013568Y028045D01*
X013594Y028058D01*
X013622Y028067D01*
X013651Y028073D01*
X013680Y028075D01*
X013709Y028073D01*
X013738Y028067D01*
X013766Y028058D01*
X013792Y028045D01*
X013816Y028029D01*
X013838Y028009D01*
X013858Y027987D01*
X013874Y027963D01*
X013887Y027937D01*
X013896Y027909D01*
X013902Y027880D01*
X013904Y027851D01*
X013902Y027822D01*
X013896Y027793D01*
X013887Y027765D01*
X013874Y027739D01*
X013858Y027715D01*
X013838Y027693D01*
X013816Y027673D01*
X013792Y027657D01*
X013766Y027644D01*
X013738Y027635D01*
X013709Y027629D01*
X013680Y027627D01*
X013651Y027629D01*
X013622Y027635D01*
X013594Y027644D01*
X013568Y027657D01*
X013544Y027673D01*
X013522Y027693D01*
X013502Y027715D01*
X013486Y027739D01*
X013473Y027765D01*
X013464Y027793D01*
X013458Y027822D01*
X013456Y027851D01*
X009956Y027851D02*
X009958Y027880D01*
X009964Y027909D01*
X009973Y027937D01*
X009986Y027963D01*
X010002Y027987D01*
X010022Y028009D01*
X010044Y028029D01*
X010068Y028045D01*
X010094Y028058D01*
X010122Y028067D01*
X010151Y028073D01*
X010180Y028075D01*
X010209Y028073D01*
X010238Y028067D01*
X010266Y028058D01*
X010292Y028045D01*
X010316Y028029D01*
X010338Y028009D01*
X010358Y027987D01*
X010374Y027963D01*
X010387Y027937D01*
X010396Y027909D01*
X010402Y027880D01*
X010404Y027851D01*
X010402Y027822D01*
X010396Y027793D01*
X010387Y027765D01*
X010374Y027739D01*
X010358Y027715D01*
X010338Y027693D01*
X010316Y027673D01*
X010292Y027657D01*
X010266Y027644D01*
X010238Y027635D01*
X010209Y027629D01*
X010180Y027627D01*
X010151Y027629D01*
X010122Y027635D01*
X010094Y027644D01*
X010068Y027657D01*
X010044Y027673D01*
X010022Y027693D01*
X010002Y027715D01*
X009986Y027739D01*
X009973Y027765D01*
X009964Y027793D01*
X009958Y027822D01*
X009956Y027851D01*
X009956Y017351D02*
X009958Y017380D01*
X009964Y017409D01*
X009973Y017437D01*
X009986Y017463D01*
X010002Y017487D01*
X010022Y017509D01*
X010044Y017529D01*
X010068Y017545D01*
X010094Y017558D01*
X010122Y017567D01*
X010151Y017573D01*
X010180Y017575D01*
X010209Y017573D01*
X010238Y017567D01*
X010266Y017558D01*
X010292Y017545D01*
X010316Y017529D01*
X010338Y017509D01*
X010358Y017487D01*
X010374Y017463D01*
X010387Y017437D01*
X010396Y017409D01*
X010402Y017380D01*
X010404Y017351D01*
X010402Y017322D01*
X010396Y017293D01*
X010387Y017265D01*
X010374Y017239D01*
X010358Y017215D01*
X010338Y017193D01*
X010316Y017173D01*
X010292Y017157D01*
X010266Y017144D01*
X010238Y017135D01*
X010209Y017129D01*
X010180Y017127D01*
X010151Y017129D01*
X010122Y017135D01*
X010094Y017144D01*
X010068Y017157D01*
X010044Y017173D01*
X010022Y017193D01*
X010002Y017215D01*
X009986Y017239D01*
X009973Y017265D01*
X009964Y017293D01*
X009958Y017322D01*
X009956Y017351D01*
X013456Y017351D02*
X013458Y017380D01*
X013464Y017409D01*
X013473Y017437D01*
X013486Y017463D01*
X013502Y017487D01*
X013522Y017509D01*
X013544Y017529D01*
X013568Y017545D01*
X013594Y017558D01*
X013622Y017567D01*
X013651Y017573D01*
X013680Y017575D01*
X013709Y017573D01*
X013738Y017567D01*
X013766Y017558D01*
X013792Y017545D01*
X013816Y017529D01*
X013838Y017509D01*
X013858Y017487D01*
X013874Y017463D01*
X013887Y017437D01*
X013896Y017409D01*
X013902Y017380D01*
X013904Y017351D01*
X013902Y017322D01*
X013896Y017293D01*
X013887Y017265D01*
X013874Y017239D01*
X013858Y017215D01*
X013838Y017193D01*
X013816Y017173D01*
X013792Y017157D01*
X013766Y017144D01*
X013738Y017135D01*
X013709Y017129D01*
X013680Y017127D01*
X013651Y017129D01*
X013622Y017135D01*
X013594Y017144D01*
X013568Y017157D01*
X013544Y017173D01*
X013522Y017193D01*
X013502Y017215D01*
X013486Y017239D01*
X013473Y017265D01*
X013464Y017293D01*
X013458Y017322D01*
X013456Y017351D01*
X016956Y017351D02*
X016958Y017380D01*
X016964Y017409D01*
X016973Y017437D01*
X016986Y017463D01*
X017002Y017487D01*
X017022Y017509D01*
X017044Y017529D01*
X017068Y017545D01*
X017094Y017558D01*
X017122Y017567D01*
X017151Y017573D01*
X017180Y017575D01*
X017209Y017573D01*
X017238Y017567D01*
X017266Y017558D01*
X017292Y017545D01*
X017316Y017529D01*
X017338Y017509D01*
X017358Y017487D01*
X017374Y017463D01*
X017387Y017437D01*
X017396Y017409D01*
X017402Y017380D01*
X017404Y017351D01*
X017402Y017322D01*
X017396Y017293D01*
X017387Y017265D01*
X017374Y017239D01*
X017358Y017215D01*
X017338Y017193D01*
X017316Y017173D01*
X017292Y017157D01*
X017266Y017144D01*
X017238Y017135D01*
X017209Y017129D01*
X017180Y017127D01*
X017151Y017129D01*
X017122Y017135D01*
X017094Y017144D01*
X017068Y017157D01*
X017044Y017173D01*
X017022Y017193D01*
X017002Y017215D01*
X016986Y017239D01*
X016973Y017265D01*
X016964Y017293D01*
X016958Y017322D01*
X016956Y017351D01*
X020456Y017351D02*
X020458Y017380D01*
X020464Y017409D01*
X020473Y017437D01*
X020486Y017463D01*
X020502Y017487D01*
X020522Y017509D01*
X020544Y017529D01*
X020568Y017545D01*
X020594Y017558D01*
X020622Y017567D01*
X020651Y017573D01*
X020680Y017575D01*
X020709Y017573D01*
X020738Y017567D01*
X020766Y017558D01*
X020792Y017545D01*
X020816Y017529D01*
X020838Y017509D01*
X020858Y017487D01*
X020874Y017463D01*
X020887Y017437D01*
X020896Y017409D01*
X020902Y017380D01*
X020904Y017351D01*
X020902Y017322D01*
X020896Y017293D01*
X020887Y017265D01*
X020874Y017239D01*
X020858Y017215D01*
X020838Y017193D01*
X020816Y017173D01*
X020792Y017157D01*
X020766Y017144D01*
X020738Y017135D01*
X020709Y017129D01*
X020680Y017127D01*
X020651Y017129D01*
X020622Y017135D01*
X020594Y017144D01*
X020568Y017157D01*
X020544Y017173D01*
X020522Y017193D01*
X020502Y017215D01*
X020486Y017239D01*
X020473Y017265D01*
X020464Y017293D01*
X020458Y017322D01*
X020456Y017351D01*
X029956Y017351D02*
X029958Y017380D01*
X029964Y017409D01*
X029973Y017437D01*
X029986Y017463D01*
X030002Y017487D01*
X030022Y017509D01*
X030044Y017529D01*
X030068Y017545D01*
X030094Y017558D01*
X030122Y017567D01*
X030151Y017573D01*
X030180Y017575D01*
X030209Y017573D01*
X030238Y017567D01*
X030266Y017558D01*
X030292Y017545D01*
X030316Y017529D01*
X030338Y017509D01*
X030358Y017487D01*
X030374Y017463D01*
X030387Y017437D01*
X030396Y017409D01*
X030402Y017380D01*
X030404Y017351D01*
X030402Y017322D01*
X030396Y017293D01*
X030387Y017265D01*
X030374Y017239D01*
X030358Y017215D01*
X030338Y017193D01*
X030316Y017173D01*
X030292Y017157D01*
X030266Y017144D01*
X030238Y017135D01*
X030209Y017129D01*
X030180Y017127D01*
X030151Y017129D01*
X030122Y017135D01*
X030094Y017144D01*
X030068Y017157D01*
X030044Y017173D01*
X030022Y017193D01*
X030002Y017215D01*
X029986Y017239D01*
X029973Y017265D01*
X029964Y017293D01*
X029958Y017322D01*
X029956Y017351D01*
X033456Y017351D02*
X033458Y017380D01*
X033464Y017409D01*
X033473Y017437D01*
X033486Y017463D01*
X033502Y017487D01*
X033522Y017509D01*
X033544Y017529D01*
X033568Y017545D01*
X033594Y017558D01*
X033622Y017567D01*
X033651Y017573D01*
X033680Y017575D01*
X033709Y017573D01*
X033738Y017567D01*
X033766Y017558D01*
X033792Y017545D01*
X033816Y017529D01*
X033838Y017509D01*
X033858Y017487D01*
X033874Y017463D01*
X033887Y017437D01*
X033896Y017409D01*
X033902Y017380D01*
X033904Y017351D01*
X033902Y017322D01*
X033896Y017293D01*
X033887Y017265D01*
X033874Y017239D01*
X033858Y017215D01*
X033838Y017193D01*
X033816Y017173D01*
X033792Y017157D01*
X033766Y017144D01*
X033738Y017135D01*
X033709Y017129D01*
X033680Y017127D01*
X033651Y017129D01*
X033622Y017135D01*
X033594Y017144D01*
X033568Y017157D01*
X033544Y017173D01*
X033522Y017193D01*
X033502Y017215D01*
X033486Y017239D01*
X033473Y017265D01*
X033464Y017293D01*
X033458Y017322D01*
X033456Y017351D01*
X036956Y017351D02*
X036958Y017380D01*
X036964Y017409D01*
X036973Y017437D01*
X036986Y017463D01*
X037002Y017487D01*
X037022Y017509D01*
X037044Y017529D01*
X037068Y017545D01*
X037094Y017558D01*
X037122Y017567D01*
X037151Y017573D01*
X037180Y017575D01*
X037209Y017573D01*
X037238Y017567D01*
X037266Y017558D01*
X037292Y017545D01*
X037316Y017529D01*
X037338Y017509D01*
X037358Y017487D01*
X037374Y017463D01*
X037387Y017437D01*
X037396Y017409D01*
X037402Y017380D01*
X037404Y017351D01*
X037402Y017322D01*
X037396Y017293D01*
X037387Y017265D01*
X037374Y017239D01*
X037358Y017215D01*
X037338Y017193D01*
X037316Y017173D01*
X037292Y017157D01*
X037266Y017144D01*
X037238Y017135D01*
X037209Y017129D01*
X037180Y017127D01*
X037151Y017129D01*
X037122Y017135D01*
X037094Y017144D01*
X037068Y017157D01*
X037044Y017173D01*
X037022Y017193D01*
X037002Y017215D01*
X036986Y017239D01*
X036973Y017265D01*
X036964Y017293D01*
X036958Y017322D01*
X036956Y017351D01*
X040456Y017351D02*
X040458Y017380D01*
X040464Y017409D01*
X040473Y017437D01*
X040486Y017463D01*
X040502Y017487D01*
X040522Y017509D01*
X040544Y017529D01*
X040568Y017545D01*
X040594Y017558D01*
X040622Y017567D01*
X040651Y017573D01*
X040680Y017575D01*
X040709Y017573D01*
X040738Y017567D01*
X040766Y017558D01*
X040792Y017545D01*
X040816Y017529D01*
X040838Y017509D01*
X040858Y017487D01*
X040874Y017463D01*
X040887Y017437D01*
X040896Y017409D01*
X040902Y017380D01*
X040904Y017351D01*
X040902Y017322D01*
X040896Y017293D01*
X040887Y017265D01*
X040874Y017239D01*
X040858Y017215D01*
X040838Y017193D01*
X040816Y017173D01*
X040792Y017157D01*
X040766Y017144D01*
X040738Y017135D01*
X040709Y017129D01*
X040680Y017127D01*
X040651Y017129D01*
X040622Y017135D01*
X040594Y017144D01*
X040568Y017157D01*
X040544Y017173D01*
X040522Y017193D01*
X040502Y017215D01*
X040486Y017239D01*
X040473Y017265D01*
X040464Y017293D01*
X040458Y017322D01*
X040456Y017351D01*
X040456Y006851D02*
X040458Y006880D01*
X040464Y006909D01*
X040473Y006937D01*
X040486Y006963D01*
X040502Y006987D01*
X040522Y007009D01*
X040544Y007029D01*
X040568Y007045D01*
X040594Y007058D01*
X040622Y007067D01*
X040651Y007073D01*
X040680Y007075D01*
X040709Y007073D01*
X040738Y007067D01*
X040766Y007058D01*
X040792Y007045D01*
X040816Y007029D01*
X040838Y007009D01*
X040858Y006987D01*
X040874Y006963D01*
X040887Y006937D01*
X040896Y006909D01*
X040902Y006880D01*
X040904Y006851D01*
X040902Y006822D01*
X040896Y006793D01*
X040887Y006765D01*
X040874Y006739D01*
X040858Y006715D01*
X040838Y006693D01*
X040816Y006673D01*
X040792Y006657D01*
X040766Y006644D01*
X040738Y006635D01*
X040709Y006629D01*
X040680Y006627D01*
X040651Y006629D01*
X040622Y006635D01*
X040594Y006644D01*
X040568Y006657D01*
X040544Y006673D01*
X040522Y006693D01*
X040502Y006715D01*
X040486Y006739D01*
X040473Y006765D01*
X040464Y006793D01*
X040458Y006822D01*
X040456Y006851D01*
X036956Y006851D02*
X036958Y006880D01*
X036964Y006909D01*
X036973Y006937D01*
X036986Y006963D01*
X037002Y006987D01*
X037022Y007009D01*
X037044Y007029D01*
X037068Y007045D01*
X037094Y007058D01*
X037122Y007067D01*
X037151Y007073D01*
X037180Y007075D01*
X037209Y007073D01*
X037238Y007067D01*
X037266Y007058D01*
X037292Y007045D01*
X037316Y007029D01*
X037338Y007009D01*
X037358Y006987D01*
X037374Y006963D01*
X037387Y006937D01*
X037396Y006909D01*
X037402Y006880D01*
X037404Y006851D01*
X037402Y006822D01*
X037396Y006793D01*
X037387Y006765D01*
X037374Y006739D01*
X037358Y006715D01*
X037338Y006693D01*
X037316Y006673D01*
X037292Y006657D01*
X037266Y006644D01*
X037238Y006635D01*
X037209Y006629D01*
X037180Y006627D01*
X037151Y006629D01*
X037122Y006635D01*
X037094Y006644D01*
X037068Y006657D01*
X037044Y006673D01*
X037022Y006693D01*
X037002Y006715D01*
X036986Y006739D01*
X036973Y006765D01*
X036964Y006793D01*
X036958Y006822D01*
X036956Y006851D01*
X033456Y006851D02*
X033458Y006880D01*
X033464Y006909D01*
X033473Y006937D01*
X033486Y006963D01*
X033502Y006987D01*
X033522Y007009D01*
X033544Y007029D01*
X033568Y007045D01*
X033594Y007058D01*
X033622Y007067D01*
X033651Y007073D01*
X033680Y007075D01*
X033709Y007073D01*
X033738Y007067D01*
X033766Y007058D01*
X033792Y007045D01*
X033816Y007029D01*
X033838Y007009D01*
X033858Y006987D01*
X033874Y006963D01*
X033887Y006937D01*
X033896Y006909D01*
X033902Y006880D01*
X033904Y006851D01*
X033902Y006822D01*
X033896Y006793D01*
X033887Y006765D01*
X033874Y006739D01*
X033858Y006715D01*
X033838Y006693D01*
X033816Y006673D01*
X033792Y006657D01*
X033766Y006644D01*
X033738Y006635D01*
X033709Y006629D01*
X033680Y006627D01*
X033651Y006629D01*
X033622Y006635D01*
X033594Y006644D01*
X033568Y006657D01*
X033544Y006673D01*
X033522Y006693D01*
X033502Y006715D01*
X033486Y006739D01*
X033473Y006765D01*
X033464Y006793D01*
X033458Y006822D01*
X033456Y006851D01*
X029956Y006851D02*
X029958Y006880D01*
X029964Y006909D01*
X029973Y006937D01*
X029986Y006963D01*
X030002Y006987D01*
X030022Y007009D01*
X030044Y007029D01*
X030068Y007045D01*
X030094Y007058D01*
X030122Y007067D01*
X030151Y007073D01*
X030180Y007075D01*
X030209Y007073D01*
X030238Y007067D01*
X030266Y007058D01*
X030292Y007045D01*
X030316Y007029D01*
X030338Y007009D01*
X030358Y006987D01*
X030374Y006963D01*
X030387Y006937D01*
X030396Y006909D01*
X030402Y006880D01*
X030404Y006851D01*
X030402Y006822D01*
X030396Y006793D01*
X030387Y006765D01*
X030374Y006739D01*
X030358Y006715D01*
X030338Y006693D01*
X030316Y006673D01*
X030292Y006657D01*
X030266Y006644D01*
X030238Y006635D01*
X030209Y006629D01*
X030180Y006627D01*
X030151Y006629D01*
X030122Y006635D01*
X030094Y006644D01*
X030068Y006657D01*
X030044Y006673D01*
X030022Y006693D01*
X030002Y006715D01*
X029986Y006739D01*
X029973Y006765D01*
X029964Y006793D01*
X029958Y006822D01*
X029956Y006851D01*
X020456Y006851D02*
X020458Y006880D01*
X020464Y006909D01*
X020473Y006937D01*
X020486Y006963D01*
X020502Y006987D01*
X020522Y007009D01*
X020544Y007029D01*
X020568Y007045D01*
X020594Y007058D01*
X020622Y007067D01*
X020651Y007073D01*
X020680Y007075D01*
X020709Y007073D01*
X020738Y007067D01*
X020766Y007058D01*
X020792Y007045D01*
X020816Y007029D01*
X020838Y007009D01*
X020858Y006987D01*
X020874Y006963D01*
X020887Y006937D01*
X020896Y006909D01*
X020902Y006880D01*
X020904Y006851D01*
X020902Y006822D01*
X020896Y006793D01*
X020887Y006765D01*
X020874Y006739D01*
X020858Y006715D01*
X020838Y006693D01*
X020816Y006673D01*
X020792Y006657D01*
X020766Y006644D01*
X020738Y006635D01*
X020709Y006629D01*
X020680Y006627D01*
X020651Y006629D01*
X020622Y006635D01*
X020594Y006644D01*
X020568Y006657D01*
X020544Y006673D01*
X020522Y006693D01*
X020502Y006715D01*
X020486Y006739D01*
X020473Y006765D01*
X020464Y006793D01*
X020458Y006822D01*
X020456Y006851D01*
X016956Y006851D02*
X016958Y006880D01*
X016964Y006909D01*
X016973Y006937D01*
X016986Y006963D01*
X017002Y006987D01*
X017022Y007009D01*
X017044Y007029D01*
X017068Y007045D01*
X017094Y007058D01*
X017122Y007067D01*
X017151Y007073D01*
X017180Y007075D01*
X017209Y007073D01*
X017238Y007067D01*
X017266Y007058D01*
X017292Y007045D01*
X017316Y007029D01*
X017338Y007009D01*
X017358Y006987D01*
X017374Y006963D01*
X017387Y006937D01*
X017396Y006909D01*
X017402Y006880D01*
X017404Y006851D01*
X017402Y006822D01*
X017396Y006793D01*
X017387Y006765D01*
X017374Y006739D01*
X017358Y006715D01*
X017338Y006693D01*
X017316Y006673D01*
X017292Y006657D01*
X017266Y006644D01*
X017238Y006635D01*
X017209Y006629D01*
X017180Y006627D01*
X017151Y006629D01*
X017122Y006635D01*
X017094Y006644D01*
X017068Y006657D01*
X017044Y006673D01*
X017022Y006693D01*
X017002Y006715D01*
X016986Y006739D01*
X016973Y006765D01*
X016964Y006793D01*
X016958Y006822D01*
X016956Y006851D01*
X013456Y006851D02*
X013458Y006880D01*
X013464Y006909D01*
X013473Y006937D01*
X013486Y006963D01*
X013502Y006987D01*
X013522Y007009D01*
X013544Y007029D01*
X013568Y007045D01*
X013594Y007058D01*
X013622Y007067D01*
X013651Y007073D01*
X013680Y007075D01*
X013709Y007073D01*
X013738Y007067D01*
X013766Y007058D01*
X013792Y007045D01*
X013816Y007029D01*
X013838Y007009D01*
X013858Y006987D01*
X013874Y006963D01*
X013887Y006937D01*
X013896Y006909D01*
X013902Y006880D01*
X013904Y006851D01*
X013902Y006822D01*
X013896Y006793D01*
X013887Y006765D01*
X013874Y006739D01*
X013858Y006715D01*
X013838Y006693D01*
X013816Y006673D01*
X013792Y006657D01*
X013766Y006644D01*
X013738Y006635D01*
X013709Y006629D01*
X013680Y006627D01*
X013651Y006629D01*
X013622Y006635D01*
X013594Y006644D01*
X013568Y006657D01*
X013544Y006673D01*
X013522Y006693D01*
X013502Y006715D01*
X013486Y006739D01*
X013473Y006765D01*
X013464Y006793D01*
X013458Y006822D01*
X013456Y006851D01*
X009956Y006851D02*
X009958Y006880D01*
X009964Y006909D01*
X009973Y006937D01*
X009986Y006963D01*
X010002Y006987D01*
X010022Y007009D01*
X010044Y007029D01*
X010068Y007045D01*
X010094Y007058D01*
X010122Y007067D01*
X010151Y007073D01*
X010180Y007075D01*
X010209Y007073D01*
X010238Y007067D01*
X010266Y007058D01*
X010292Y007045D01*
X010316Y007029D01*
X010338Y007009D01*
X010358Y006987D01*
X010374Y006963D01*
X010387Y006937D01*
X010396Y006909D01*
X010402Y006880D01*
X010404Y006851D01*
X010402Y006822D01*
X010396Y006793D01*
X010387Y006765D01*
X010374Y006739D01*
X010358Y006715D01*
X010338Y006693D01*
X010316Y006673D01*
X010292Y006657D01*
X010266Y006644D01*
X010238Y006635D01*
X010209Y006629D01*
X010180Y006627D01*
X010151Y006629D01*
X010122Y006635D01*
X010094Y006644D01*
X010068Y006657D01*
X010044Y006673D01*
X010022Y006693D01*
X010002Y006715D01*
X009986Y006739D01*
X009973Y006765D01*
X009964Y006793D01*
X009958Y006822D01*
X009956Y006851D01*
D13*
X008680Y012661D03*
X008680Y013741D03*
X008680Y014831D03*
X008680Y015921D03*
X007680Y016461D03*
X007680Y015371D03*
X007680Y014281D03*
X007680Y013201D03*
X006680Y013741D03*
X006680Y012661D03*
X006680Y014831D03*
X006680Y015921D03*
X006680Y017001D03*
X006680Y018091D03*
X006680Y019181D03*
X006680Y020261D03*
X006680Y021351D03*
X007680Y021891D03*
X007680Y022981D03*
X007680Y024061D03*
X007680Y025151D03*
X006680Y024611D03*
X006680Y025701D03*
X007680Y026241D03*
X007680Y027331D03*
X007680Y028411D03*
X007680Y029501D03*
X006680Y030041D03*
X006680Y028961D03*
X006680Y027871D03*
X006680Y026781D03*
X008680Y026781D03*
X008680Y027871D03*
X008680Y028961D03*
X008680Y030041D03*
X008680Y025701D03*
X008680Y024611D03*
X008680Y023521D03*
X008680Y022441D03*
X008680Y021351D03*
X008680Y020261D03*
X008680Y019181D03*
X008680Y018091D03*
X008680Y017001D03*
X007680Y017541D03*
X007680Y018631D03*
X007680Y019721D03*
X007680Y020801D03*
X006680Y022441D03*
X006680Y023521D03*
X017490Y039851D03*
X018570Y039851D03*
X019660Y039851D03*
X020750Y039851D03*
X021830Y039851D03*
X022920Y039851D03*
X024010Y039851D03*
X025090Y039851D03*
X024550Y040851D03*
X025630Y040851D03*
X025090Y041851D03*
X024010Y041851D03*
X022920Y041851D03*
X021830Y041851D03*
X020750Y041851D03*
X019660Y041851D03*
X018570Y041851D03*
X017490Y041851D03*
X018030Y040851D03*
X019110Y040851D03*
X020200Y040851D03*
X021290Y040851D03*
X022370Y040851D03*
X023460Y040851D03*
X026180Y041851D03*
X027270Y041851D03*
X028350Y041851D03*
X029440Y041851D03*
X030530Y041851D03*
X031610Y041851D03*
X032700Y041851D03*
X033790Y041851D03*
X034870Y041851D03*
X034330Y040851D03*
X033240Y040851D03*
X032160Y040851D03*
X031070Y040851D03*
X029980Y040851D03*
X028890Y040851D03*
X027810Y040851D03*
X026720Y040851D03*
X026180Y039851D03*
X027270Y039851D03*
X028350Y039851D03*
X029440Y039851D03*
X030530Y039851D03*
X031610Y039851D03*
X032700Y039851D03*
X033790Y039851D03*
X034870Y039851D03*
X043680Y030041D03*
X043680Y028961D03*
X043680Y027871D03*
X043680Y026781D03*
X044680Y026241D03*
X044680Y027331D03*
X044680Y028411D03*
X044680Y029501D03*
X045680Y030041D03*
X045680Y028961D03*
X045680Y027871D03*
X045680Y026781D03*
X045680Y025701D03*
X045680Y024611D03*
X045680Y023521D03*
X045680Y022441D03*
X044680Y022981D03*
X044680Y024061D03*
X044680Y025151D03*
X043680Y024611D03*
X043680Y025701D03*
X043680Y023521D03*
X043680Y022441D03*
X044680Y021891D03*
X043680Y021351D03*
X043680Y020261D03*
X043680Y019181D03*
X043680Y018091D03*
X043680Y017001D03*
X044680Y017541D03*
X044680Y018631D03*
X044680Y019721D03*
X044680Y020801D03*
X045680Y020261D03*
X045680Y019181D03*
X045680Y018091D03*
X045680Y017001D03*
X044680Y016461D03*
X044680Y015371D03*
X044680Y014281D03*
X044680Y013201D03*
X043680Y013741D03*
X043680Y012661D03*
X045680Y012661D03*
X045680Y013741D03*
X045680Y014831D03*
X045680Y015921D03*
X043680Y015921D03*
X043680Y014831D03*
X045680Y021351D03*
D14*
X044680Y009321D03*
X044680Y033381D03*
X038210Y040851D03*
X014150Y040851D03*
X007680Y033381D03*
X007680Y009321D03*
D15*
X021804Y004683D03*
X024556Y004683D03*
X027304Y004683D03*
X030056Y004683D03*
D16*
X026180Y026351D03*
X026180Y028351D03*
X026180Y030851D03*
X026180Y033351D03*
X026180Y035351D03*
D17*
X026180Y022351D03*
X024180Y022351D03*
X024180Y019851D03*
X026180Y019851D03*
X026180Y017351D03*
X024180Y017351D03*
X024180Y014851D03*
X026180Y014851D03*
X026180Y012351D03*
X024180Y012351D03*
X024180Y009851D03*
X026180Y009851D03*
D18*
X046180Y006351D03*
X046180Y036851D03*
X006180Y036851D03*
X006180Y006351D03*
D19*
X010180Y006851D02*
X010680Y007351D01*
X010680Y012351D01*
X010180Y012851D01*
X009180Y011851D01*
X008180Y011851D01*
X007680Y012351D01*
X007680Y013201D01*
X007930Y013701D02*
X008430Y013201D01*
X009080Y013201D01*
X009230Y013351D01*
X010930Y013351D01*
X011430Y012851D01*
X011680Y012851D01*
X011180Y012351D01*
X011180Y007351D01*
X011680Y006851D01*
X013680Y006851D02*
X014180Y007351D01*
X014180Y012351D01*
X013680Y012851D01*
X013680Y013001D01*
X012380Y014301D01*
X009240Y014301D01*
X008680Y013741D01*
X007930Y013701D02*
X006720Y013701D01*
X006680Y013741D01*
X007700Y015351D02*
X012180Y015351D01*
X013230Y014301D01*
X014030Y014301D01*
X014380Y013951D01*
X014380Y013651D01*
X015180Y012851D01*
X014680Y012351D01*
X014680Y007351D01*
X015180Y006851D01*
X017180Y006851D02*
X017680Y007351D01*
X017680Y012351D01*
X017180Y012851D01*
X018180Y012351D02*
X018180Y007351D01*
X018680Y006851D01*
X020680Y006851D02*
X021180Y007351D01*
X021180Y012351D01*
X020680Y012851D01*
X021680Y012351D02*
X021680Y007351D01*
X022180Y006851D01*
X021680Y012351D02*
X022180Y012851D01*
X018680Y012851D02*
X018180Y012351D01*
X018680Y017351D02*
X018180Y017851D01*
X018180Y022851D01*
X018680Y023351D01*
X017680Y022851D02*
X017680Y017851D01*
X017180Y017351D01*
X015180Y017351D02*
X014680Y017851D01*
X014680Y022851D01*
X015180Y023351D01*
X014180Y022851D02*
X014180Y017851D01*
X013680Y017351D01*
X011680Y017351D02*
X011180Y017851D01*
X011180Y022851D01*
X011680Y023351D01*
X010680Y022851D02*
X010680Y017851D01*
X010180Y017351D01*
X007700Y015351D02*
X007680Y015371D01*
X010680Y022851D02*
X010180Y023351D01*
X009380Y024851D02*
X019580Y024851D01*
X020030Y025301D01*
X020030Y025851D01*
X020680Y026501D01*
X020680Y027851D01*
X021180Y028351D01*
X021180Y033351D01*
X020680Y033851D01*
X021680Y033351D02*
X021680Y028351D01*
X022180Y027851D01*
X018680Y027851D02*
X018680Y026651D01*
X017880Y025851D01*
X009430Y025851D01*
X009040Y026241D01*
X007680Y026241D01*
X007860Y026781D02*
X008430Y027351D01*
X009030Y027351D01*
X009380Y027001D01*
X009380Y026851D01*
X009780Y026451D01*
X014580Y026451D01*
X015180Y027051D01*
X015180Y027851D01*
X014680Y028351D01*
X014680Y033351D01*
X015180Y033851D01*
X014180Y033351D02*
X014180Y028351D01*
X013680Y027851D01*
X013680Y027251D01*
X013180Y026751D01*
X009930Y026751D01*
X009630Y027051D01*
X009630Y027201D01*
X009230Y027601D01*
X009230Y028051D01*
X008870Y028411D01*
X007680Y028411D01*
X007890Y028961D02*
X008430Y029501D01*
X008980Y029501D01*
X009680Y028801D01*
X009680Y028651D01*
X010130Y028201D01*
X010130Y027901D01*
X010180Y027851D01*
X010680Y028351D01*
X010680Y033351D01*
X010180Y033851D01*
X011180Y033351D02*
X011180Y028351D01*
X011680Y027851D01*
X011030Y027201D01*
X010080Y027201D01*
X009630Y027651D01*
X009630Y028251D01*
X008920Y028961D01*
X008680Y028961D01*
X007890Y028961D02*
X006680Y028961D01*
X006680Y026781D02*
X007860Y026781D01*
X008680Y026781D02*
X009000Y026781D01*
X009630Y026151D01*
X016480Y026151D01*
X017180Y026851D01*
X017180Y027851D01*
X017680Y028351D01*
X017680Y033351D01*
X017180Y033851D01*
X018180Y033351D02*
X018180Y028351D01*
X018680Y027851D01*
X017180Y023351D02*
X017680Y022851D01*
X020680Y023351D02*
X021180Y022851D01*
X021180Y017851D01*
X020680Y017351D01*
X021680Y017851D02*
X021680Y022851D01*
X022180Y023351D01*
X021680Y017851D02*
X022180Y017351D01*
X030180Y017351D02*
X030680Y017851D01*
X030680Y022851D01*
X030180Y023351D01*
X031180Y022851D02*
X031180Y017851D01*
X031680Y017351D01*
X033680Y017351D02*
X034180Y017851D01*
X034180Y022851D01*
X033680Y023351D01*
X034680Y022851D02*
X034680Y017851D01*
X035180Y017351D01*
X037180Y017351D02*
X037680Y017851D01*
X037680Y022851D01*
X037180Y023351D01*
X038180Y022851D02*
X038180Y017851D01*
X038680Y017351D01*
X040680Y017351D02*
X041180Y017851D01*
X041180Y022851D01*
X040680Y023351D01*
X041680Y022851D02*
X041680Y017851D01*
X042180Y017351D01*
X040180Y015351D02*
X039130Y014301D01*
X038330Y014301D01*
X037980Y013951D01*
X037980Y013651D01*
X037180Y012851D01*
X037680Y012351D01*
X037680Y007351D01*
X037180Y006851D01*
X038180Y007351D02*
X038680Y006851D01*
X038180Y007351D02*
X038180Y012351D01*
X038680Y012851D01*
X038680Y013001D01*
X039980Y014301D01*
X043120Y014301D01*
X043680Y013741D01*
X043905Y013176D02*
X043305Y013176D01*
X043130Y013351D01*
X041430Y013351D01*
X040930Y012851D01*
X040680Y012851D01*
X041180Y012351D01*
X041180Y007351D01*
X040680Y006851D01*
X041680Y007351D02*
X042180Y006851D01*
X041680Y007351D02*
X041680Y012351D01*
X042180Y012851D01*
X043180Y011851D01*
X044180Y011851D01*
X044680Y012351D01*
X044680Y013201D01*
X044480Y013751D02*
X043905Y013176D01*
X044480Y013751D02*
X045640Y013751D01*
X045680Y013741D01*
X044660Y015351D02*
X040180Y015351D01*
X044660Y015351D02*
X044680Y015371D01*
X041680Y022851D02*
X042180Y023351D01*
X042980Y024851D02*
X032780Y024851D01*
X032330Y025301D01*
X032330Y025851D01*
X031680Y026501D01*
X031680Y027851D01*
X031180Y028351D01*
X031180Y033351D01*
X031680Y033851D01*
X030680Y033351D02*
X030680Y028351D01*
X030180Y027851D01*
X033680Y027851D02*
X033680Y026651D01*
X034480Y025851D01*
X042930Y025851D01*
X043320Y026241D01*
X044680Y026241D01*
X044500Y026781D02*
X043930Y027351D01*
X043330Y027351D01*
X042980Y027001D01*
X042980Y026851D01*
X042580Y026451D01*
X037780Y026451D01*
X037180Y027051D01*
X037180Y027851D01*
X037680Y028351D01*
X037680Y033351D01*
X037180Y033851D01*
X038180Y033351D02*
X038180Y028351D01*
X038680Y027851D01*
X038680Y027251D01*
X039180Y026751D01*
X042430Y026751D01*
X042730Y027051D01*
X042730Y027201D01*
X043130Y027601D01*
X043130Y028051D01*
X043490Y028411D01*
X044680Y028411D01*
X044470Y028961D02*
X043930Y029501D01*
X043380Y029501D01*
X042680Y028801D01*
X042680Y028651D01*
X042230Y028201D01*
X042230Y027901D01*
X042180Y027851D01*
X041680Y028351D01*
X041680Y033351D01*
X042180Y033851D01*
X041180Y033351D02*
X041180Y028351D01*
X040680Y027851D01*
X041330Y027201D01*
X042280Y027201D01*
X042730Y027651D01*
X042730Y028251D01*
X043440Y028961D01*
X043680Y028961D01*
X044470Y028961D02*
X045680Y028961D01*
X045680Y026781D02*
X044500Y026781D01*
X043680Y026781D02*
X043360Y026781D01*
X042730Y026151D01*
X035880Y026151D01*
X035180Y026851D01*
X035180Y027851D01*
X034680Y028351D01*
X034680Y033351D01*
X035180Y033851D01*
X034180Y033351D02*
X034180Y028351D01*
X033680Y027851D01*
X035180Y023351D02*
X034680Y022851D01*
X031680Y023351D02*
X031180Y022851D01*
X038180Y022851D02*
X038680Y023351D01*
X042980Y024851D02*
X043280Y025151D01*
X043930Y025151D01*
X044480Y024601D01*
X045670Y024601D01*
X045680Y024611D01*
X041180Y033351D02*
X040680Y033851D01*
X040680Y035851D02*
X040680Y037851D01*
X039580Y038951D01*
X034780Y038951D01*
X034330Y039401D01*
X034330Y040101D01*
X033790Y040641D01*
X033790Y041851D01*
X034870Y041851D02*
X034870Y041161D01*
X036680Y039351D01*
X040680Y039351D01*
X042180Y037851D01*
X042180Y035851D01*
X038680Y035851D02*
X038680Y037551D01*
X037630Y038601D01*
X034030Y038601D01*
X033230Y039401D01*
X033230Y040101D01*
X032700Y040631D01*
X032700Y041851D01*
X031610Y041851D02*
X031610Y040621D01*
X032180Y040051D01*
X032180Y039451D01*
X033380Y038251D01*
X036030Y038251D01*
X037130Y037151D01*
X037130Y035901D01*
X037180Y035851D01*
X035180Y035851D02*
X035180Y036901D01*
X034180Y037901D01*
X032730Y037901D01*
X031080Y039551D01*
X031080Y040051D01*
X030530Y040601D01*
X030530Y041851D01*
X029440Y041851D02*
X029440Y040641D01*
X029980Y040101D01*
X029980Y039551D01*
X031980Y037551D01*
X033230Y037551D01*
X033680Y037101D01*
X033680Y035851D01*
X031680Y035851D02*
X031680Y037251D01*
X030630Y038301D01*
X030130Y038301D01*
X028880Y039551D01*
X028880Y040101D01*
X028350Y040631D01*
X028350Y041851D01*
X027270Y041851D02*
X027270Y040611D01*
X027830Y040051D01*
X027830Y038901D01*
X028280Y038451D01*
X029280Y038451D01*
X030180Y037551D01*
X030180Y035851D01*
X030180Y033851D02*
X030680Y033351D01*
X033680Y033851D02*
X034180Y033351D01*
X038180Y033351D02*
X038680Y033851D01*
X025090Y040661D02*
X025090Y041851D01*
X024010Y041851D02*
X024010Y040631D01*
X023480Y040101D01*
X023480Y039551D01*
X022230Y038301D01*
X021730Y038301D01*
X020680Y037251D01*
X020680Y035851D01*
X022180Y035851D02*
X022180Y037551D01*
X023080Y038451D01*
X024080Y038451D01*
X024580Y038951D01*
X024580Y040151D01*
X025090Y040661D01*
X022920Y040641D02*
X022920Y041851D01*
X021830Y041851D02*
X021830Y040601D01*
X021280Y040051D01*
X021280Y039551D01*
X019630Y037901D01*
X018180Y037901D01*
X017180Y036901D01*
X017180Y035851D01*
X018680Y035851D02*
X018680Y037101D01*
X019130Y037551D01*
X020380Y037551D01*
X022380Y039551D01*
X022380Y040101D01*
X022920Y040641D01*
X020750Y040621D02*
X020750Y041851D01*
X019660Y041851D02*
X019660Y040631D01*
X019130Y040101D01*
X019130Y039401D01*
X018330Y038601D01*
X014730Y038601D01*
X013680Y037551D01*
X013680Y035851D01*
X015180Y035851D02*
X015230Y035901D01*
X015230Y037151D01*
X016330Y038251D01*
X018980Y038251D01*
X020180Y039451D01*
X020180Y040051D01*
X020750Y040621D01*
X018570Y040641D02*
X018570Y041851D01*
X017490Y041851D02*
X017180Y041851D01*
X016180Y040851D01*
X016180Y039851D01*
X015680Y039351D01*
X011680Y039351D01*
X010180Y037851D01*
X010180Y035851D01*
X011680Y035851D02*
X011680Y037851D01*
X012780Y038951D01*
X017580Y038951D01*
X018030Y039401D01*
X018030Y040101D01*
X018570Y040641D01*
X018680Y033851D02*
X018180Y033351D01*
X021680Y033351D02*
X022180Y033851D01*
X014180Y033351D02*
X013680Y033851D01*
X011680Y033851D02*
X011180Y033351D01*
X009055Y025176D02*
X008455Y025176D01*
X007880Y024601D01*
X006690Y024601D01*
X006680Y024611D01*
X009055Y025176D02*
X009380Y024851D01*
X013680Y023351D02*
X014180Y022851D01*
X030180Y012851D02*
X030680Y012351D01*
X030680Y007351D01*
X030180Y006851D01*
X031180Y007351D02*
X031680Y006851D01*
X031180Y007351D02*
X031180Y012351D01*
X031680Y012851D01*
X033680Y012851D02*
X034180Y012351D01*
X034180Y007351D01*
X033680Y006851D01*
X034680Y007351D02*
X035180Y006851D01*
X034680Y007351D02*
X034680Y012351D01*
X035180Y012851D01*
M02*
