G75*
%MOIN*%
%OFA0B0*%
%FSLAX24Y24*%
%IPPOS*%
%LPD*%
%AMOC8*
5,1,8,0,0,1.08239X$1,22.5*
%
%ADD10C,0.0000*%
%ADD11C,0.0080*%
%ADD12R,0.0394X0.1604*%
%ADD13C,0.0060*%
%ADD14C,0.0040*%
%ADD15R,0.0295X0.0571*%
%ADD16R,0.0340X0.0160*%
%ADD17R,0.0160X0.0340*%
%ADD18C,0.0320*%
D10*
X004180Y003851D02*
X004180Y038101D01*
X009105Y038101D01*
X011655Y040651D01*
X011655Y044351D01*
X040705Y044351D01*
X040705Y040626D01*
X043255Y038076D01*
X048180Y038076D01*
X048180Y003851D01*
X004180Y003851D01*
X020980Y003851D02*
X025380Y003851D01*
X026480Y003851D02*
X030880Y003851D01*
D11*
X030196Y003811D02*
X030196Y005465D01*
X030511Y005465D01*
X030511Y003240D01*
X027164Y003811D02*
X027164Y005465D01*
X026849Y005465D01*
X026849Y003240D01*
X025011Y003240D02*
X025011Y005465D01*
X024696Y005465D01*
X024696Y003811D01*
X021664Y003811D02*
X021664Y005465D01*
X021349Y005465D01*
X021349Y003240D01*
D12*
X023180Y004643D03*
X028680Y004643D03*
D13*
X028574Y005881D02*
X028574Y006201D01*
X028680Y006308D01*
X028894Y006308D01*
X029001Y006201D01*
X029001Y005881D01*
X028360Y005881D01*
X028574Y006094D02*
X028360Y006308D01*
X028360Y006525D02*
X029001Y006525D01*
X029001Y006952D01*
X028680Y006739D02*
X028680Y006525D01*
X028360Y007814D02*
X028360Y008028D01*
X028360Y007921D02*
X029001Y007921D01*
X029001Y007814D02*
X029001Y008028D01*
X029001Y008244D02*
X028360Y008671D01*
X029001Y008671D01*
X029001Y008244D02*
X028360Y008244D01*
X023601Y006802D02*
X023601Y006375D01*
X022960Y006375D01*
X022960Y006158D02*
X023174Y005944D01*
X023174Y006051D02*
X023174Y005731D01*
X022960Y005731D02*
X023601Y005731D01*
X023601Y006051D01*
X023494Y006158D01*
X023280Y006158D01*
X023174Y006051D01*
X023280Y006375D02*
X023280Y006589D01*
X023387Y007664D02*
X023387Y007878D01*
X023494Y007771D02*
X023067Y007771D01*
X022960Y007878D01*
X023067Y008094D02*
X022960Y008201D01*
X022960Y008521D01*
X023280Y008521D01*
X023387Y008414D01*
X023387Y008201D01*
X023174Y008201D02*
X023174Y008521D01*
X023387Y008739D02*
X022746Y008739D01*
X022960Y008739D02*
X022960Y009059D01*
X023067Y009166D01*
X023280Y009166D01*
X023387Y009059D01*
X023387Y008739D01*
X023174Y008201D02*
X023067Y008094D01*
X025190Y038281D02*
X025190Y038621D01*
X025150Y038760D02*
X024810Y038760D01*
X024810Y039041D02*
X025150Y039041D01*
X025470Y038621D02*
X025470Y038281D01*
D14*
X025530Y038110D02*
X025830Y038110D01*
X025820Y037591D02*
X025530Y037591D01*
X025239Y037331D02*
X024932Y037331D01*
X025086Y037101D02*
X025239Y037101D01*
X025393Y037101D02*
X025393Y036947D01*
X025469Y036871D01*
X025700Y036871D01*
X025853Y036871D02*
X026160Y036871D01*
X026007Y036871D02*
X026007Y037331D01*
X026160Y037178D01*
X025700Y037178D02*
X025469Y037178D01*
X025393Y037101D01*
X025239Y036871D02*
X025239Y037331D01*
X025700Y037178D02*
X025700Y036717D01*
X024660Y036871D02*
X024353Y036871D01*
X024507Y036871D02*
X024507Y037331D01*
X024660Y037178D01*
X024200Y037254D02*
X024123Y037331D01*
X023969Y037331D01*
X023893Y037254D01*
X024200Y036947D01*
X024123Y036871D01*
X023969Y036871D01*
X023893Y036947D01*
X023893Y037254D01*
X023739Y037254D02*
X023662Y037331D01*
X023509Y037331D01*
X023432Y037254D01*
X023739Y036947D01*
X023662Y036871D01*
X023509Y036871D01*
X023432Y036947D01*
X023432Y037254D01*
X023279Y037254D02*
X023202Y037331D01*
X023049Y037331D01*
X022972Y037254D01*
X023279Y036947D01*
X023202Y036871D01*
X023049Y036871D01*
X022972Y036947D01*
X022972Y037254D01*
X022818Y037178D02*
X022588Y037178D01*
X022512Y037101D01*
X022512Y036947D01*
X022588Y036871D01*
X022818Y036871D01*
X022818Y036717D02*
X022818Y037178D01*
X022358Y037101D02*
X022205Y037101D01*
X022358Y037331D02*
X022051Y037331D01*
X022358Y037331D02*
X022358Y036871D01*
X023279Y036947D02*
X023279Y037254D01*
X023739Y037254D02*
X023739Y036947D01*
X024200Y036947D02*
X024200Y037254D01*
X024320Y037591D02*
X024030Y037591D01*
X024030Y038110D02*
X024330Y038110D01*
D15*
X024462Y037851D03*
X023892Y037851D03*
X025392Y037851D03*
X025962Y037851D03*
D16*
X025330Y038201D03*
X025330Y038701D03*
D17*
X025230Y038901D03*
X024730Y038901D03*
D18*
X043680Y030041D02*
X044080Y030041D01*
X044680Y029501D02*
X045080Y029501D01*
X045380Y030041D02*
X045980Y030041D01*
X045980Y028961D02*
X045380Y028961D01*
X045080Y028411D02*
X044680Y028411D01*
X044080Y027871D02*
X043680Y027871D01*
X043680Y028961D02*
X044080Y028961D01*
X045380Y027871D02*
X045980Y027871D01*
X045080Y027331D02*
X044680Y027331D01*
X044080Y026781D02*
X043680Y026781D01*
X044680Y026241D02*
X045080Y026241D01*
X045380Y026781D02*
X045980Y026781D01*
X045980Y025701D02*
X045380Y025701D01*
X045080Y025151D02*
X044680Y025151D01*
X044080Y024611D02*
X043680Y024611D01*
X043680Y025701D02*
X044080Y025701D01*
X045380Y024611D02*
X045980Y024611D01*
X045080Y024071D02*
X044680Y024071D01*
X044080Y023521D02*
X043680Y023521D01*
X043680Y022441D02*
X044080Y022441D01*
X044680Y022981D02*
X045080Y022981D01*
X045370Y022441D02*
X045970Y022441D01*
X045080Y021891D02*
X044680Y021891D01*
X044080Y021351D02*
X043680Y021351D01*
X043680Y020261D02*
X044080Y020261D01*
X044680Y020801D02*
X045080Y020801D01*
X045380Y020261D02*
X045980Y020261D01*
X045080Y019721D02*
X044680Y019721D01*
X044080Y019181D02*
X043680Y019181D01*
X043680Y018091D02*
X044080Y018091D01*
X044680Y018631D02*
X045080Y018631D01*
X045380Y018091D02*
X045980Y018091D01*
X045080Y017541D02*
X044680Y017541D01*
X044080Y017001D02*
X043680Y017001D01*
X044680Y016461D02*
X045080Y016461D01*
X045380Y015921D02*
X045980Y015921D01*
X045080Y015371D02*
X044680Y015371D01*
X044080Y014831D02*
X043680Y014831D01*
X043680Y015921D02*
X044080Y015921D01*
X045380Y014831D02*
X045980Y014831D01*
X045080Y014281D02*
X044680Y014281D01*
X044080Y013741D02*
X043680Y013741D01*
X043680Y012661D02*
X044080Y012661D01*
X044680Y013201D02*
X045080Y013201D01*
X045380Y013741D02*
X045980Y013741D01*
X045980Y012661D02*
X045380Y012661D01*
X045380Y017001D02*
X045980Y017001D01*
X045980Y019181D02*
X045380Y019181D01*
X045380Y021351D02*
X045980Y021351D01*
X045980Y023521D02*
X045380Y023521D01*
M02*
