G75*
%MOIN*%
%OFA0B0*%
%FSLAX24Y24*%
%IPPOS*%
%LPD*%
%AMOC8*
5,1,8,0,0,1.08239X$1,22.5*
%
%ADD10C,0.0000*%
%ADD11C,0.0556*%
%ADD12OC8,0.0680*%
%ADD13C,0.2080*%
%ADD14R,0.1130X0.1730*%
%ADD15OC8,0.0730*%
%ADD16OC8,0.0710*%
%ADD17OC8,0.1582*%
D10*
X004180Y003851D02*
X004180Y038101D01*
X009105Y038101D01*
X011655Y040651D01*
X011655Y044351D01*
X040705Y044351D01*
X040705Y040626D01*
X043255Y038076D01*
X048180Y038076D01*
X048180Y003851D01*
X004180Y003851D01*
X020980Y003851D02*
X025380Y003851D01*
X026480Y003851D02*
X030880Y003851D01*
D11*
X030180Y006851D03*
X030180Y007851D03*
X030180Y008851D03*
X030180Y009851D03*
X030180Y010851D03*
X030180Y011851D03*
X030180Y012851D03*
X030180Y013851D03*
X030180Y014851D03*
X031680Y014851D03*
X031680Y013851D03*
X031680Y012851D03*
X031680Y011851D03*
X031680Y010851D03*
X031680Y009851D03*
X031680Y008851D03*
X031680Y007851D03*
X031680Y006851D03*
X033680Y006851D03*
X033680Y007851D03*
X033680Y008851D03*
X033680Y009851D03*
X033680Y010851D03*
X033680Y011851D03*
X033680Y012851D03*
X033680Y013851D03*
X033680Y014851D03*
X035180Y014851D03*
X035180Y013851D03*
X035180Y012851D03*
X035180Y011851D03*
X035180Y010851D03*
X035180Y009851D03*
X035180Y008851D03*
X035180Y007851D03*
X035180Y006851D03*
X037180Y006851D03*
X037180Y007851D03*
X037180Y008851D03*
X037180Y009851D03*
X037180Y010851D03*
X037180Y011851D03*
X037180Y012851D03*
X037180Y013851D03*
X037180Y014851D03*
X038680Y014851D03*
X038680Y013851D03*
X038680Y012851D03*
X038680Y011851D03*
X038680Y010851D03*
X038680Y009851D03*
X038680Y008851D03*
X038680Y007851D03*
X038680Y006851D03*
X040680Y006851D03*
X040680Y007851D03*
X040680Y008851D03*
X040680Y009851D03*
X040680Y010851D03*
X040680Y011851D03*
X040680Y012851D03*
X040680Y013851D03*
X040680Y014851D03*
X042180Y014851D03*
X042180Y013851D03*
X042180Y012851D03*
X042180Y011851D03*
X042180Y010851D03*
X042180Y009851D03*
X042180Y008851D03*
X042180Y007851D03*
X042180Y006851D03*
X042180Y017351D03*
X042180Y018351D03*
X042180Y019351D03*
X042180Y020351D03*
X042180Y021351D03*
X042180Y022351D03*
X042180Y023351D03*
X042180Y024351D03*
X042180Y025351D03*
X040680Y025351D03*
X040680Y024351D03*
X040680Y023351D03*
X040680Y022351D03*
X040680Y021351D03*
X040680Y020351D03*
X040680Y019351D03*
X040680Y018351D03*
X040680Y017351D03*
X038680Y017351D03*
X038680Y018351D03*
X038680Y019351D03*
X038680Y020351D03*
X038680Y021351D03*
X037180Y021351D03*
X037180Y020351D03*
X037180Y019351D03*
X037180Y018351D03*
X037180Y017351D03*
X035180Y017351D03*
X035180Y018351D03*
X035180Y019351D03*
X035180Y020351D03*
X035180Y021351D03*
X035180Y022351D03*
X035180Y023351D03*
X035180Y024351D03*
X035180Y025351D03*
X033680Y025351D03*
X033680Y024351D03*
X033680Y023351D03*
X033680Y022351D03*
X033680Y021351D03*
X033680Y020351D03*
X033680Y019351D03*
X033680Y018351D03*
X033680Y017351D03*
X031680Y017351D03*
X031680Y018351D03*
X031680Y019351D03*
X031680Y020351D03*
X031680Y021351D03*
X031680Y022351D03*
X031680Y023351D03*
X031680Y024351D03*
X031680Y025351D03*
X030180Y025351D03*
X030180Y024351D03*
X030180Y023351D03*
X030180Y022351D03*
X030180Y021351D03*
X030180Y020351D03*
X030180Y019351D03*
X030180Y018351D03*
X030180Y017351D03*
X037180Y022351D03*
X037180Y023351D03*
X037180Y024351D03*
X037180Y025351D03*
X038680Y025351D03*
X038680Y024351D03*
X038680Y023351D03*
X038680Y022351D03*
X038680Y027851D03*
X038680Y028851D03*
X038680Y029851D03*
X038680Y030851D03*
X038680Y031851D03*
X038680Y032851D03*
X038680Y033851D03*
X038680Y034851D03*
X038680Y035851D03*
X037180Y035851D03*
X037180Y034851D03*
X037180Y033851D03*
X037180Y032851D03*
X037180Y031851D03*
X037180Y030851D03*
X037180Y029851D03*
X037180Y028851D03*
X037180Y027851D03*
X035180Y027851D03*
X035180Y028851D03*
X035180Y029851D03*
X035180Y030851D03*
X035180Y031851D03*
X035180Y032851D03*
X035180Y033851D03*
X035180Y034851D03*
X035180Y035851D03*
X033680Y035851D03*
X033680Y034851D03*
X033680Y033851D03*
X033680Y032851D03*
X033680Y031851D03*
X033680Y030851D03*
X033680Y029851D03*
X033680Y028851D03*
X033680Y027851D03*
X031680Y027851D03*
X031680Y028851D03*
X031680Y029851D03*
X031680Y030851D03*
X031680Y031851D03*
X031680Y032851D03*
X031680Y033851D03*
X031680Y034851D03*
X031680Y035851D03*
X030180Y035851D03*
X030180Y034851D03*
X030180Y033851D03*
X030180Y032851D03*
X030180Y031851D03*
X030180Y030851D03*
X030180Y029851D03*
X030180Y028851D03*
X030180Y027851D03*
X022180Y027851D03*
X022180Y028851D03*
X022180Y029851D03*
X022180Y030851D03*
X022180Y031851D03*
X022180Y032851D03*
X022180Y033851D03*
X022180Y034851D03*
X022180Y035851D03*
X020680Y035851D03*
X020680Y034851D03*
X020680Y033851D03*
X020680Y032851D03*
X020680Y031851D03*
X020680Y030851D03*
X020680Y029851D03*
X020680Y028851D03*
X020680Y027851D03*
X018680Y027851D03*
X018680Y028851D03*
X018680Y029851D03*
X018680Y030851D03*
X018680Y031851D03*
X018680Y032851D03*
X018680Y033851D03*
X018680Y034851D03*
X018680Y035851D03*
X017180Y035851D03*
X017180Y034851D03*
X017180Y033851D03*
X017180Y032851D03*
X017180Y031851D03*
X017180Y030851D03*
X017180Y029851D03*
X017180Y028851D03*
X017180Y027851D03*
X015180Y027851D03*
X015180Y028851D03*
X015180Y029851D03*
X015180Y030851D03*
X015180Y031851D03*
X015180Y032851D03*
X015180Y033851D03*
X015180Y034851D03*
X015180Y035851D03*
X013680Y035851D03*
X013680Y034851D03*
X013680Y033851D03*
X013680Y032851D03*
X013680Y031851D03*
X013680Y030851D03*
X013680Y029851D03*
X013680Y028851D03*
X013680Y027851D03*
X011680Y027851D03*
X011680Y028851D03*
X011680Y029851D03*
X011680Y030851D03*
X011680Y031851D03*
X011680Y032851D03*
X011680Y033851D03*
X011680Y034851D03*
X011680Y035851D03*
X010180Y035851D03*
X010180Y034851D03*
X010180Y033851D03*
X010180Y032851D03*
X010180Y031851D03*
X010180Y030851D03*
X010180Y029851D03*
X010180Y028851D03*
X010180Y027851D03*
X010180Y025351D03*
X010180Y024351D03*
X010180Y023351D03*
X010180Y022351D03*
X010180Y021351D03*
X010180Y020351D03*
X010180Y019351D03*
X010180Y018351D03*
X010180Y017351D03*
X011680Y017351D03*
X011680Y018351D03*
X011680Y019351D03*
X011680Y020351D03*
X011680Y021351D03*
X011680Y022351D03*
X011680Y023351D03*
X011680Y024351D03*
X011680Y025351D03*
X013680Y025351D03*
X013680Y024351D03*
X013680Y023351D03*
X013680Y022351D03*
X015180Y022351D03*
X015180Y023351D03*
X015180Y024351D03*
X015180Y025351D03*
X017180Y025351D03*
X017180Y024351D03*
X017180Y023351D03*
X017180Y022351D03*
X017180Y021351D03*
X017180Y020351D03*
X017180Y019351D03*
X017180Y018351D03*
X017180Y017351D03*
X018680Y017351D03*
X018680Y018351D03*
X018680Y019351D03*
X018680Y020351D03*
X018680Y021351D03*
X018680Y022351D03*
X018680Y023351D03*
X018680Y024351D03*
X018680Y025351D03*
X020680Y025351D03*
X020680Y024351D03*
X020680Y023351D03*
X020680Y022351D03*
X020680Y021351D03*
X020680Y020351D03*
X020680Y019351D03*
X020680Y018351D03*
X020680Y017351D03*
X022180Y017351D03*
X022180Y018351D03*
X022180Y019351D03*
X022180Y020351D03*
X022180Y021351D03*
X022180Y022351D03*
X022180Y023351D03*
X022180Y024351D03*
X022180Y025351D03*
X015180Y021351D03*
X015180Y020351D03*
X015180Y019351D03*
X015180Y018351D03*
X015180Y017351D03*
X013680Y017351D03*
X013680Y018351D03*
X013680Y019351D03*
X013680Y020351D03*
X013680Y021351D03*
X013680Y014851D03*
X013680Y013851D03*
X013680Y012851D03*
X013680Y011851D03*
X013680Y010851D03*
X013680Y009851D03*
X013680Y008851D03*
X013680Y007851D03*
X013680Y006851D03*
X015180Y006851D03*
X015180Y007851D03*
X015180Y008851D03*
X015180Y009851D03*
X015180Y010851D03*
X015180Y011851D03*
X015180Y012851D03*
X015180Y013851D03*
X015180Y014851D03*
X017180Y014851D03*
X017180Y013851D03*
X017180Y012851D03*
X017180Y011851D03*
X017180Y010851D03*
X017180Y009851D03*
X017180Y008851D03*
X017180Y007851D03*
X017180Y006851D03*
X018680Y006851D03*
X018680Y007851D03*
X018680Y008851D03*
X018680Y009851D03*
X018680Y010851D03*
X018680Y011851D03*
X018680Y012851D03*
X018680Y013851D03*
X018680Y014851D03*
X020680Y014851D03*
X020680Y013851D03*
X020680Y012851D03*
X020680Y011851D03*
X020680Y010851D03*
X020680Y009851D03*
X020680Y008851D03*
X020680Y007851D03*
X020680Y006851D03*
X022180Y006851D03*
X022180Y007851D03*
X022180Y008851D03*
X022180Y009851D03*
X022180Y010851D03*
X022180Y011851D03*
X022180Y012851D03*
X022180Y013851D03*
X022180Y014851D03*
X011680Y014851D03*
X011680Y013851D03*
X011680Y012851D03*
X011680Y011851D03*
X011680Y010851D03*
X011680Y009851D03*
X011680Y008851D03*
X011680Y007851D03*
X011680Y006851D03*
X010180Y006851D03*
X010180Y007851D03*
X010180Y008851D03*
X010180Y009851D03*
X010180Y010851D03*
X010180Y011851D03*
X010180Y012851D03*
X010180Y013851D03*
X010180Y014851D03*
X040680Y027851D03*
X040680Y028851D03*
X040680Y029851D03*
X040680Y030851D03*
X040680Y031851D03*
X040680Y032851D03*
X040680Y033851D03*
X040680Y034851D03*
X040680Y035851D03*
X042180Y035851D03*
X042180Y034851D03*
X042180Y033851D03*
X042180Y032851D03*
X042180Y031851D03*
X042180Y030851D03*
X042180Y029851D03*
X042180Y028851D03*
X042180Y027851D03*
D12*
X043680Y027871D03*
X043680Y028961D03*
X043680Y030041D03*
X044680Y029501D03*
X044680Y028411D03*
X044680Y027331D03*
X044680Y026241D03*
X043680Y026781D03*
X043680Y025701D03*
X043680Y024611D03*
X043680Y023521D03*
X043680Y022441D03*
X044680Y022981D03*
X044680Y024061D03*
X044680Y025151D03*
X045680Y024611D03*
X045680Y025701D03*
X045680Y026781D03*
X045680Y027871D03*
X045680Y028961D03*
X045680Y030041D03*
X045680Y023521D03*
X045680Y022441D03*
X044680Y021891D03*
X043680Y021351D03*
X043680Y020261D03*
X043680Y019181D03*
X043680Y018091D03*
X043680Y017001D03*
X044680Y017541D03*
X044680Y018631D03*
X044680Y019721D03*
X044680Y020801D03*
X045680Y020261D03*
X045680Y019181D03*
X045680Y018091D03*
X045680Y017001D03*
X044680Y016461D03*
X044680Y015371D03*
X044680Y014281D03*
X044680Y013201D03*
X043680Y013741D03*
X043680Y012661D03*
X045680Y012661D03*
X045680Y013741D03*
X045680Y014831D03*
X045680Y015921D03*
X043680Y015921D03*
X043680Y014831D03*
X045680Y021351D03*
X034870Y039851D03*
X033790Y039851D03*
X032700Y039851D03*
X031610Y039851D03*
X030530Y039851D03*
X029440Y039851D03*
X028350Y039851D03*
X027270Y039851D03*
X026180Y039851D03*
X026720Y040851D03*
X027810Y040851D03*
X028890Y040851D03*
X029980Y040851D03*
X031070Y040851D03*
X032160Y040851D03*
X033240Y040851D03*
X034330Y040851D03*
X033790Y041851D03*
X034870Y041851D03*
X032700Y041851D03*
X031610Y041851D03*
X030530Y041851D03*
X029440Y041851D03*
X028350Y041851D03*
X027270Y041851D03*
X026180Y041851D03*
X025630Y040851D03*
X024550Y040851D03*
X023460Y040851D03*
X022370Y040851D03*
X021290Y040851D03*
X020200Y040851D03*
X019110Y040851D03*
X018030Y040851D03*
X017490Y041851D03*
X018570Y041851D03*
X019660Y041851D03*
X020750Y041851D03*
X021830Y041851D03*
X022920Y041851D03*
X024010Y041851D03*
X025090Y041851D03*
X025090Y039851D03*
X024010Y039851D03*
X022920Y039851D03*
X021830Y039851D03*
X020750Y039851D03*
X019660Y039851D03*
X018570Y039851D03*
X017490Y039851D03*
X008680Y030041D03*
X008680Y028961D03*
X008680Y027871D03*
X008680Y026781D03*
X007680Y026241D03*
X007680Y027331D03*
X007680Y028411D03*
X007680Y029501D03*
X006680Y030041D03*
X006680Y028961D03*
X006680Y027871D03*
X006680Y026781D03*
X006680Y025701D03*
X006680Y024611D03*
X006680Y023521D03*
X006680Y022441D03*
X007680Y022981D03*
X007680Y024061D03*
X007680Y025151D03*
X008680Y024611D03*
X008680Y025701D03*
X008680Y023521D03*
X008680Y022441D03*
X007680Y021891D03*
X006680Y021351D03*
X006680Y020261D03*
X006680Y019181D03*
X006680Y018091D03*
X006680Y017001D03*
X007680Y017541D03*
X007680Y018631D03*
X007680Y019721D03*
X007680Y020801D03*
X008680Y020261D03*
X008680Y019181D03*
X008680Y018091D03*
X008680Y017001D03*
X007680Y016461D03*
X007680Y015371D03*
X007680Y014281D03*
X007680Y013201D03*
X006680Y013741D03*
X006680Y012661D03*
X008680Y012661D03*
X008680Y013741D03*
X008680Y014831D03*
X008680Y015921D03*
X006680Y015921D03*
X006680Y014831D03*
X008680Y021351D03*
D13*
X007680Y009321D03*
X007680Y033381D03*
X014150Y040851D03*
X038210Y040851D03*
X044680Y033381D03*
X044680Y009321D03*
D14*
X030056Y004683D03*
X027304Y004683D03*
X024556Y004683D03*
X021804Y004683D03*
D15*
X026180Y026351D03*
X026180Y028351D03*
X026180Y030851D03*
X026180Y033351D03*
X026180Y035351D03*
D16*
X026180Y022351D03*
X024180Y022351D03*
X024180Y019851D03*
X026180Y019851D03*
X026180Y017351D03*
X024180Y017351D03*
X024180Y014851D03*
X026180Y014851D03*
X026180Y012351D03*
X024180Y012351D03*
X024180Y009851D03*
X026180Y009851D03*
D17*
X046180Y006351D03*
X046180Y036851D03*
X006180Y036851D03*
X006180Y006351D03*
M02*
